<?xml version="1.0" encoding="UTF-8"?>
<svg xmlns="http://www.w3.org/2000/svg" xmlns:xlink="http://www.w3.org/1999/xlink" width="240pt" height="240pt" viewBox="0 0 240 240" version="1.1">
<g id="surface4691712">
<path style=" stroke:none;fill-rule:nonzero;fill:rgb(100%,100%,100%);fill-opacity:1;" d="M 203.425781 26.664062 C 201.902344 24.96875 199.734375 24 197.464844 24 L 42.535156 24 C 40.265625 24 38.097656 24.96875 36.574219 26.664062 C 35.054688 28.359375 34.335938 30.625 34.585938 32.878906 L 52.199219 191.464844 C 52.550781 194.6875 54.832031 197.382812 57.953125 198.273438 L 117.792969 215.367188 C 118.511719 215.574219 119.257812 215.679688 119.992188 215.679688 C 120.726562 215.679688 121.472656 215.574219 122.191406 215.367188 L 182.03125 198.273438 C 185.152344 197.382812 187.425781 194.6875 187.785156 191.464844 L 205.40625 32.878906 C 205.664062 30.625 204.945312 28.359375 203.425781 26.664062 Z M 164.128906 104.59375 L 160.558594 162.871094 L 120.257812 176.046875 L 79.953125 162.871094 L 78.425781 135 L 98.824219 135 L 99.335938 147.671875 L 120.257812 154.769531 L 141.175781 147.671875 L 142.703125 124.871094 L 97.808594 124.871094 L 96.792969 104.601562 L 143.726562 104.601562 L 145.257812 84.328125 L 74.847656 84.328125 L 73.320312 64.046875 L 166.679688 64.046875 Z M 164.128906 104.59375 "/>
</g>
</svg>
