<?xml version="1.0" encoding="UTF-8"?>
<svg xmlns="http://www.w3.org/2000/svg" xmlns:xlink="http://www.w3.org/1999/xlink" width="250pt" height="250pt" viewBox="0 0 250 250" version="1.1">
<g id="surface4280436">
<path style=" stroke:none;fill-rule:nonzero;fill:rgb(100%,100%,100%);fill-opacity:1;" d="M 26.40625 10 C 23.828125 10.46875 22.050781 12.871094 22.34375 15.46875 L 40 212.65625 C 40.234375 214.667969 41.660156 216.328125 43.59375 216.875 L 123.59375 239.84375 C 124.511719 240.117188 125.488281 240.117188 126.40625 239.84375 L 206.40625 216.875 C 208.339844 216.328125 209.765625 214.667969 210 212.65625 L 227.65625 15.46875 C 227.792969 14.0625 227.324219 12.675781 226.367188 11.621094 C 225.410156 10.585938 224.0625 10 222.65625 10 L 27.34375 10 C 27.1875 10 27.03125 10 26.875 10 C 26.71875 10 26.5625 10 26.40625 10 Z M 32.8125 20 L 217.1875 20 L 200.46875 208.28125 L 125 229.6875 L 49.53125 208.28125 Z M 62.65625 50.3125 C 60.078125 50.78125 58.300781 53.183594 58.59375 55.78125 L 65.3125 129.6875 C 65.46875 132.265625 67.578125 134.296875 70.15625 134.375 L 150 134.375 L 147.8125 157.34375 L 125.15625 162.1875 L 102.1875 157.34375 L 101.40625 149.21875 C 101.25 146.582031 99.042969 144.53125 96.40625 144.53125 L 72.03125 144.53125 C 70.625 144.53125 69.277344 145.117188 68.320312 146.152344 C 67.363281 147.207031 66.894531 148.59375 67.03125 150 L 69.84375 180.625 C 70 182.636719 71.347656 184.375 73.28125 185 L 122.96875 200.15625 L 123.59375 200.3125 C 124.511719 200.585938 125.488281 200.585938 126.40625 200.3125 L 176.71875 185 C 178.710938 184.433594 180.136719 182.695312 180.3125 180.625 L 186.875 105.46875 C 187.011719 104.082031 186.5625 102.714844 185.644531 101.679688 C 184.726562 100.644531 183.417969 100.039062 182.03125 100 L 96.875 100 L 95.625 84.53125 L 184.21875 84.53125 C 186.816406 84.550781 188.984375 82.578125 189.21875 80 L 191.40625 55.78125 C 191.542969 54.375 191.074219 52.988281 190.117188 51.933594 C 189.160156 50.898438 187.8125 50.3125 186.40625 50.3125 L 63.59375 50.3125 C 63.28125 50.273438 62.96875 50.273438 62.65625 50.3125 Z M 69.0625 60.3125 L 180.9375 60.3125 L 179.6875 74.53125 L 90.15625 74.53125 C 88.75 74.53125 87.402344 75.117188 86.445312 76.152344 C 85.488281 77.207031 85.019531 78.59375 85.15625 80 L 87.5 105.46875 C 87.734375 107.988281 89.824219 109.941406 92.34375 110 L 176.5625 110 L 170.625 176.40625 L 125 190.15625 L 79.375 176.40625 L 77.5 154.53125 L 91.875 154.53125 L 92.5 161.875 C 92.65625 164.082031 94.238281 165.917969 96.40625 166.40625 L 124.21875 172.1875 C 124.882812 172.324219 125.585938 172.324219 126.25 172.1875 L 153.59375 166.40625 C 155.761719 165.917969 157.34375 164.082031 157.5 161.875 L 160.46875 129.6875 C 160.546875 128.300781 160.058594 126.953125 159.121094 125.957031 C 158.164062 124.941406 156.855469 124.375 155.46875 124.375 L 74.6875 124.375 Z M 69.0625 60.3125 "/>
</g>
</svg>
